<?xml version="1.0"?>
<svg xmlns="http://www.w3.org/2000/svg" xmlns:xlink="http://www.w3.org/1999/xlink" version="1.1" id="Capa_1" x="0px" y="0px" viewBox="0 0 372.588 372.588" style="enable-background:new 0 0 372.588 372.588;" xml:space="preserve" width="512px" height="512px"><g><g>
	<g>
		<path d="M322.184,55.148l-2.8-43.68c-0.177-2.312-1.104-4.503-2.64-6.24c-1.79-1.412-3.965-2.249-6.24-2.4l-43.68-2.8    c-4.403-0.363-8.267,2.912-8.631,7.315c-0.003,0.042-0.007,0.083-0.009,0.125c-0.274,4.392,3.05,8.18,7.44,8.48l27.04,1.76    l-33.92,33.92c-36.965-30.8-91.899-25.803-122.7,11.162c-9.768,11.723-16.285,25.805-18.9,40.838    c-46.815,11.299-75.606,58.41-64.306,105.225c8.756,36.276,39.625,62.96,76.786,66.375v37.04h-27.28c-4.418,0-8,3.582-8,8    s3.582,8,8,8h27.36v36.32c0,4.418,3.582,8,8,8s8-3.582,8-8v-36.32h27.36c4.418,0,8-3.582,8-8s-3.582-8-8-8h-27.36v-37.04    c39.21-3.709,71.09-33.197,77.84-72c46.769-11.303,75.519-58.379,64.216-105.148c-3.113-12.882-9.125-24.884-17.576-35.092    l34.08-34.08l1.92,27.28c0.254,4.23,3.763,7.528,8,7.52c4.418,0.011,8.009-3.562,8.02-7.98    C322.204,55.534,322.198,55.34,322.184,55.148z M137.704,259.628c-39.367-0.064-71.228-32.029-71.164-71.396    c0.05-30.896,19.999-58.242,49.404-67.724c0.83,47.507,39.605,85.571,87.12,85.52h3.6    C198.573,237.518,170.217,259.557,137.704,259.628z M208.904,189.708c-1.92,0-3.84,0-5.76,0    c-39.279,0.053-71.163-31.745-71.216-71.024c-0.001-0.539,0.005-1.078,0.016-1.616c1.92,0,3.84,0,5.76,0    c39.349,0.044,71.236,31.931,71.28,71.28C208.984,188.828,208.904,189.227,208.904,189.708z M272.141,135.726    c-3.151,12.436-9.604,23.79-18.677,32.861v0.56c-8.026,7.894-17.816,13.762-28.56,17.12c-0.958-47.484-39.707-85.486-87.2-85.52    h-3.6c9.659-38.118,48.39-61.188,86.508-51.529C258.73,58.878,281.801,97.609,272.141,135.726z" data-original="#000000" class="active-path" data-old_color="#000000" fill="#D57E11"/>
	</g>
</g></g> </svg>
