<?xml version="1.0"?>
<svg xmlns="http://www.w3.org/2000/svg" id="Layer_1" height="512px" viewBox="0 0 512 512" width="512px" data-name="Layer 1"><g><path d="m371.643 77.677a19.383 19.383 0 0 0 -27.411 0l-17.07 17.07 30 30a6 6 0 1 1 -8.484 8.484l-30-30-52.2 52.2 40.943 40.943a6 6 0 1 1 -8.484 8.484l-40.944-40.943-52.2 52.2 30 30a6 6 0 1 1 -8.484 8.485l-30-30-52.2 52.2 40.944 40.943a6 6 0 0 1 -8.485 8.485l-40.943-40.944-58.948 58.947a19.383 19.383 0 0 0 0 27.411l62.68 62.681a19.381 19.381 0 0 0 27.41 0l266.556-266.554a19.383 19.383 0 0 0 0-27.411zm-225.303 311.288a6 6 0 0 1 -8.485 0l-14.82-14.82a6 6 0 0 1 8.485-8.485l14.82 14.82a6 6 0 0 1 0 8.485z" data-original="#000000" class="active-path" data-old_color="#000000" fill="#D57E11"/></g> </svg>
